<svg xmlns="http://www.w3.org/2000/svg" viewBox="0 0 512 512" fill="none" shape-rendering="crispEdges"><rect width="512" height="512" fill="#131010" /><path d="M0 0H90V90H0ZM90 0H180V45H90ZM180 0H270V45H180ZM0 90H90V180H0ZM0 180H90V225H0ZM90 180H180V225H90ZM180 180H270V225H180Z" transform="translate(143 166)" fill="#5A5858" /><path d="M0 0H90V90H0ZM90 0H180V45H90ZM180 0H270V45H180ZM0 90H90V180H0ZM0 180H90V225H0ZM90 180H180V225H90ZM180 180H270V225H180Z" transform="translate(98 121)" fill="#FFFFFF" /></svg>