<svg width="276" height="40" viewBox="0 0 276 40" fill="none" xmlns="http://www.w3.org/2000/svg" shape-rendering="crispEdges">
<path d="M0 8H6V16H0ZM6 0H12V8H6ZM12 0H18V8H12ZM18 8H24V16H18ZM36 8H42V16H36ZM42 0H48V8H42ZM48 8H54V16H48ZM66 8H72V16H66ZM72 0H78V8H72ZM78 0H84V8H78ZM84 0H90V8H84ZM102 0H108V8H102ZM108 0H114V8H108ZM114 0H120V16H114ZM120 0H126V8H120ZM126 0H132V8H126ZM0 16H6V32H0ZM36 16H42V32H36ZM42 16H48V24H42ZM48 16H54V32H48ZM66 16H72V24H66ZM72 16H78V24H72ZM78 16H84V24H78ZM84 16H90V32H84ZM114 16H120V32H114ZM6 32H12V40H6ZM12 32H18V40H12ZM18 32H24V40H18ZM36 32H42V40H36ZM48 32H54V40H48ZM66 32H72V40H66ZM72 32H78V40H72ZM78 32H84V40H78ZM84 32H90V40H84ZM114 32H120V40H114Z" fill="#B7B1B1"/>
<path d="M138 8H144V16H138ZM144 0H150V8H144ZM150 0H156V8H150ZM156 8H162V16H156ZM174 0H180V16H174ZM204 8H210V16H204ZM210 0H216V8H210ZM216 8H222V16H216ZM234 0H240V16H234ZM258 0H264V16H258ZM138 16H144V32H138ZM174 16H180V32H174ZM204 16H210V32H204ZM210 16H216V24H210ZM216 16H222V32H216ZM234 16H240V32H234ZM240 24H246V32H240ZM252 24H258V32H252ZM258 16H264V32H258ZM144 32H150V40H144ZM150 32H156V40H150ZM156 32H162V40H156ZM174 32H180V40H174ZM180 32H186V40H180ZM186 32H192V40H186ZM204 32H210V40H204ZM216 32H222V40H216ZM234 32H240V40H234ZM246 32H252V40H246ZM258 32H264V40H258Z" fill="#F1ECEC"/>
</svg>
